PathFileType	4	(X/Y/Z)	C:/Users/opensim2020/Desktop/walking_exp_matlab/subject02_walking17_run.trc	
DataRate	CameraRate	NumFrames	NumMarkers	Units	OrigDataRate	OrigDataStartFrame	OrigNumFrames	
100.00	100.00	4	51	mm	100.00	301	112	
Frame#	Time	LSHO			RELB			LANK			LTOE			LUPA			RUPA			RWRB			LKNE			RSHO			RFIN			RFRM			RASI			LTHI			LWRB			RTHI			LASI			LFHD			RKNE			LELB			LTIB			RWRA			STRN			RTIB			RFHD			RANK			RBHD			RTOE			RHEE			C7			LHEE			LFRM			CLAV			LWRA			LBHD			RBAK			LFIN			T10			LPSI			RPSI			*39			*40			*41			*42			*43			*44			*45			*46			*47			*48			*49			*50			
		X1	Y1	Z1	X2	Y2	Z2	X3	Y3	Z3	X4	Y4	Z4	X5	Y5	Z5	X6	Y6	Z6	X7	Y7	Z7	X8	Y8	Z8	X9	Y9	Z9	X10	Y10	Z10	X11	Y11	Z11	X12	Y12	Z12	X13	Y13	Z13	X14	Y14	Z14	X15	Y15	Z15	X16	Y16	Z16	X17	Y17	Z17	X18	Y18	Z18	X19	Y19	Z19	X20	Y20	Z20	X21	Y21	Z21	X22	Y22	Z22	X23	Y23	Z23	X24	Y24	Z24	X25	Y25	Z25	X26	Y26	Z26	X27	Y27	Z27	X28	Y28	Z28	X29	Y29	Z29	X30	Y30	Z30	X31	Y31	Z31	X32	Y32	Z32	X33	Y33	Z33	X34	Y34	Z34	X35	Y35	Z35	X36	Y36	Z36	X37	Y37	Z37	X38	Y38	Z38	X39	Y39	Z39	X40	Y40	Z40	X41	Y41	Z41	X42	Y42	Z42	X43	Y43	Z43	X44	Y44	Z44	X45	Y45	Z45	X46	Y46	Z46	X47	Y47	Z47	X48	Y48	Z48	X49	Y49	Z49	X50	Y50	Z50	X51	Y51	Z51	

71	0.700	-131.53384	727.94727	1501.68018	393.06973	784.16760	1223.85522	-54.39304	1057.98889	118.58384	-41.09684	1216.10327	130.54607	-292.42780	648.01642	1423.07092	331.48526	744.95306	1352.84058	209.52364	950.34625	1263.34753	-93.44533	921.85272	513.94110	198.39546	758.36688	1496.66687	167.83702	962.36438	1320.04871	304.58682	871.81677	1240.35071	170.74236	789.36816	982.23737	-136.73146	855.08405	709.74054	-322.07880	759.52075	1120.37927	252.52046	576.56561	719.58588	-75.31784	808.16486	1006.58887	-45.26360	823.93182	1735.71008	243.56464	494.45908	522.30206	-397.97925	611.44910	1329.06128	-90.70976	955.12567	320.82678	191.01410	905.52167	1292.42224	27.48962	834.29126	1276.60486	241.01913	337.63010	415.20792	98.69345	820.15778	1725.47021	209.72290	196.88777	283.19189	88.67297	690.42279	1628.90808	242.77641	224.33693	118.47207	143.39897	157.96391	268.37787	32.73429	671.28711	1524.16882	-1.98811	1031.44922	86.25968	-372.91226	684.87976	1211.82446	13.47777	804.53552	1450.71167	-278.99939	772.61957	1157.30640	-53.94938	705.87244	1642.29065	113.13499	599.75128	1371.69421	-286.74881	810.18768	1090.52356	51.29620	584.23761	1265.27966	-17.39925	599.63556	1049.87048	95.92592	589.08722	1056.29407	-3356.98438	2845.89771	1034.46863																36.33960	709.50818	1789.46985															 
72	0.710	-135.36757	765.02283	1498.50635	391.55844	820.08704	1222.67969	-58.58067	1109.14758	120.53783	-49.46457	1268.22583	133.62770	-292.56186	682.19183	1413.28467	329.85049	781.20337	1352.34058	206.94014	987.12238	1256.52258	-96.80372	962.05939	510.46738	196.01651	798.45636	1496.42981	164.99518	1000.90027	1312.50354	302.68207	908.09308	1236.10425	170.58588	833.08942	983.39197	-142.82504	894.52423	703.01074	-312.56989	806.90576	1120.27075	250.95761	618.90143	723.74084	-73.28598	851.93951	1007.98364	-48.27442	864.98364	1734.55640	244.48831	535.12506	526.62036	-394.28583	645.70123	1315.80969	-94.95479	1003.09949	320.93591	188.39603	943.12201	1286.69995	24.17445	874.76660	1277.13000	239.87373	374.28384	425.22870	95.38827	860.69452	1724.19604	206.81902	229.56081	297.51953	84.98123	730.42059	1628.62695	247.91356	253.17622	134.94817	139.81329	190.80399	280.52658	29.49639	709.79926	1522.24573	-5.11398	1084.60303	88.26225	-365.97665	726.45599	1204.67334	9.45617	843.60480	1449.94861	-271.30292	818.30426	1159.41675	-57.48587	746.18463	1642.03284	111.77067	639.90247	1369.37854	-276.15469	859.24219	1094.19067	50.01011	625.22906	1264.53198	-19.97497	642.59607	1051.15198	93.28854	632.13245	1057.81555	-3360.19507	2845.13623	1034.70251																33.31191	750.81787	1789.22192															 
73	0.720	-139.21329	802.10382	1494.52344	389.63690	854.91473	1220.44531	-61.82693	1152.03906	119.61332	-54.42677	1311.87109	130.51205	-292.87848	717.59967	1401.58521	328.07657	816.94696	1350.59399	205.04028	1023.74811	1246.78845	-99.67809	1004.52185	508.28174	194.25749	837.57556	1495.20142	162.60776	1039.84216	1302.15466	301.11526	943.86816	1230.37915	170.63268	876.83600	983.69305	-148.58043	932.89331	695.83984	-302.78915	855.31348	1119.68958	249.23015	662.86261	725.48663	-71.45300	894.61755	1007.27417	-51.34226	905.91754	1732.61951	245.45375	578.76617	528.87939	-390.29105	681.74048	1300.73853	-97.72539	1047.25452	321.10461	185.75952	980.91522	1278.44592	20.62323	915.33710	1276.62878	238.11424	413.78403	434.02908	92.53958	901.14435	1722.12390	203.35005	265.20618	311.07477	81.22926	770.10510	1627.57593	250.96156	284.61353	150.69470	136.04248	226.02214	292.54681	26.88272	748.44250	1519.73694	-7.91901	1128.23804	88.14053	-358.72775	769.14258	1196.65234	5.85519	882.61694	1448.11145	-263.75873	865.31152	1161.18420	-61.03804	786.58612	1640.86963	110.11118	679.81683	1365.85132	-265.73904	909.75616	1098.09985	48.08364	666.11285	1262.88489	-22.93154	684.97559	1051.44641	90.58287	674.64020	1058.51660	-3360.46362	2845.17603	1034.36584																29.94577	791.85229	1788.03796															 
74	0.730	-143.08170	839.27686	1489.88049	387.58673	888.75159	1217.52661	-63.86941	1187.22766	115.59283	-56.80468	1347.70862	121.15420	-293.19724	754.28101	1388.30640	326.21393	852.17444	1347.86707	204.05019	1060.54797	1234.36743	-101.79467	1048.52795	506.74402	193.28320	876.39337	1493.26978	160.81375	1079.34546	1288.02246	299.47659	978.79071	1223.03711	170.33224	920.29150	983.38147	-153.61522	971.30109	688.30127	-293.36838	904.91010	1119.01611	248.19115	708.98242	724.94598	-70.63857	937.48804	1005.07947	-54.32434	946.67896	1729.93591	246.32544	625.95038	527.78998	-385.89261	719.72260	1284.18994	-99.46066	1086.52917	319.45441	184.23251	1019.40814	1267.92725	17.37382	955.68475	1274.62390	236.58537	457.15479	440.40253	89.59141	941.35187	1719.46826	199.90746	304.44287	323.32263	77.63947	809.74426	1625.30469	252.25294	318.15753	165.06825	132.08524	264.24887	305.28543	24.34524	787.25012	1516.40771	-9.50004	1163.30286	85.19696	-351.15057	813.25427	1187.63367	2.43445	921.71149	1445.43555	-256.33682	913.16681	1162.81030	-64.41561	826.97144	1638.88647	107.79719	719.76459	1361.51013	-255.49831	960.66278	1101.59692	45.56221	706.91425	1259.90381	-26.13764	727.10095	1050.59595	87.90251	716.77563	1058.10608	-3357.08447	2846.17065	1034.50549																26.40830	832.65265	1786.02710															 
